<svg xmlns="http://www.w3.org/2000/svg" xmlns:xlink="http://www.w3.org/1999/xlink" fill="none" version="1.1" width="18" height="18" viewBox="0 0 18 18"><g><g><g><ellipse cx="8.249986410140991" cy="8.249955892562866" rx="6" ry="6" fill-opacity="0" stroke-opacity="1" stroke="#1C3959" fill="none" stroke-width="1.5" stroke-linecap="ROUND" stroke-linejoin="round"/></g><g><path d="M11.84465341014099,13.248747751937866Q11.739165410140991,13.143258751937866,11.682076410140992,13.005430751937865Q11.624986410140991,12.867603751937866,11.624986410140991,12.718420267137866Q11.624986410140991,12.644551751937867,11.63939741014099,12.572102751937866Q11.653808410140991,12.499653751937867,11.682076410140992,12.431407751937867Q11.710345410140992,12.363161751937866,11.751384410140991,12.301742751937866Q11.79242341014099,12.240322751937866,11.844656410140992,12.188089751937866Q11.896889410140991,12.135857751937866,11.958308410140992,12.094817751937866Q12.019728410140992,12.053778751937866,12.087973410140991,12.025510751937865Q12.156219410140991,11.997242751937867,12.22866841014099,11.982831751937866Q12.301117910140992,11.968420751937867,12.374986410140991,11.968420751937867Q12.52417141014099,11.968420751937867,12.662001410140991,12.025511751937866Q12.799830410140991,12.082602751937866,12.905319410140992,12.188092751937866L16.654796410140992,15.937611751937865L16.65531641014099,15.938131751937867Q16.76080641014099,16.043621751937867,16.817896410140992,16.181451751937868Q16.87498641014099,16.319281751937865,16.87498641014099,16.468461751937866Q16.87498641014099,16.542331751937866,16.860576410140993,16.614781751937866Q16.84616641014099,16.687231751937865,16.817896410140992,16.75547175193787Q16.78962641014099,16.823721751937867,16.74858641014099,16.885141751937866Q16.707546410140992,16.946561751937868,16.65531641014099,16.998791751937866Q16.603086410140993,17.051021751937867,16.54166641014099,17.092061751937866Q16.480246410140992,17.133101751937865,16.411996410140993,17.161371751937867Q16.34375641014099,17.189641751937867,16.27130641014099,17.204051751937868Q16.19885641014099,17.218461751937866,16.12498641014099,17.218461751937866Q15.97579641014099,17.218461751937866,15.83797641014099,17.161371751937867Q15.700146410140992,17.104281751937865,15.594656410140992,16.998791751937866L15.59449641014099,16.998631751937864L11.84465341014099,13.248747751937866Z" fill-rule="evenodd" fill="#1C3959" fill-opacity="1"/></g></g></g></svg>